<svg width="1024" height="1024" viewBox="0 0 1024 1024" fill="none" xmlns="http://www.w3.org/2000/svg">
<rect width="1024" height="1024" fill="#141414"/>
<g clip-path="url(#clip0_1214_5794)">
<path d="M280.978 377.554L182.142 476.588C170.714 488.039 170.714 506.604 182.142 518.055L421.198 757.59C432.626 769.041 451.154 769.041 462.582 757.59L561.418 658.556C572.846 647.105 572.846 628.54 561.418 617.089L322.362 377.554C310.934 366.103 292.406 366.103 280.978 377.554Z" fill="url(#paint0_linear_1214_5794)"/>
<path d="M841.857 336.086L743.022 237.052C731.594 225.601 713.065 225.601 701.637 237.052L322.362 617.088C310.934 628.539 310.934 647.105 322.362 658.556L421.197 757.59C432.625 769.041 451.154 769.04 462.582 757.59L841.857 377.553C853.285 366.102 853.285 347.537 841.857 336.086Z" fill="url(#paint1_linear_1214_5794)"/>
</g>
<path d="M0 659.2C0 786.892 9.98045e-05 850.738 24.8506 899.51C46.7097 942.411 81.5893 977.29 124.49 999.149C173.262 1024 237.108 1024 364.8 1024H0V659.2ZM1024 1024H659.2C786.892 1024 850.738 1024 899.51 999.149C942.411 977.29 977.29 942.411 999.149 899.51C1024 850.738 1024 786.892 1024 659.2V1024ZM364.8 0C237.108 0 173.262 9.98045e-05 124.49 24.8506C81.5893 46.7097 46.7097 81.5893 24.8506 124.49C0.000101784 173.262 0 237.108 0 364.8V0H364.8ZM1024 364.8C1024 237.108 1024 173.262 999.149 124.49C977.29 81.5893 942.411 46.7097 899.51 24.8506C850.738 0.000101784 786.892 0 659.2 0H1024V364.8Z" fill="#141414"/>
<defs>
<linearGradient id="paint0_linear_1214_5794" x1="441.89" y1="497.321" x2="301.389" y2="637.541" gradientUnits="userSpaceOnUse">
<stop stop-color="#E9E9E9"/>
<stop offset="1" stop-color="#454545"/>
</linearGradient>
<linearGradient id="paint1_linear_1214_5794" x1="371.779" y1="708.073" x2="793.282" y2="287.413" gradientUnits="userSpaceOnUse">
<stop stop-color="#DCDCDC"/>
<stop offset="0.994" stop-color="#636363"/>
</linearGradient>
<clipPath id="clip0_1214_5794">
<rect width="694" height="567" fill="white" transform="translate(165 228.5)"/>
</clipPath>
</defs>
</svg>
